<?xml version="1.0" encoding="UTF-8" standalone="no"?>
<svg
   aria-hidden="true"
   role="img"
   class="iconify iconify--logos"
   width="31.88"
   height="32"
   preserveAspectRatio="xMidYMid meet"
   viewBox="0 0 256 257"
   version="1.1"
   id="svg6"
   sodipodi:docname="vite.svg"
   xml:space="preserve"
   inkscape:version="1.3 (0e150ed6c4, 2023-07-21)"
   xmlns:inkscape="http://www.inkscape.org/namespaces/inkscape"
   xmlns:sodipodi="http://sodipodi.sourceforge.net/DTD/sodipodi-0.dtd"
   xmlns="http://www.w3.org/2000/svg"
   xmlns:svg="http://www.w3.org/2000/svg"><sodipodi:namedview
     id="namedview6"
     pagecolor="#ffffff"
     bordercolor="#000000"
     borderopacity="0.25"
     inkscape:showpageshadow="2"
     inkscape:pageopacity="0.0"
     inkscape:pagecheckerboard="0"
     inkscape:deskcolor="#d1d1d1"
     inkscape:zoom="2.1526036"
     inkscape:cx="16.027103"
     inkscape:cy="40.183897"
     inkscape:window-width="1366"
     inkscape:window-height="697"
     inkscape:window-x="-8"
     inkscape:window-y="-8"
     inkscape:window-maximized="1"
     inkscape:current-layer="svg6" /><defs
     id="defs5"><linearGradient
       id="IconifyId1813088fe1fbc01fb466"
       x1="-.828%"
       x2="57.636%"
       y1="7.652%"
       y2="78.411%"><stop
         offset="0%"
         stop-color="#41D1FF"
         id="stop1" /><stop
         offset="100%"
         stop-color="#BD34FE"
         id="stop2" /></linearGradient><linearGradient
       id="IconifyId1813088fe1fbc01fb467"
       x1="43.376%"
       x2="50.316%"
       y1="2.242%"
       y2="89.03%"><stop
         offset="0%"
         stop-color="#FFEA83"
         id="stop3" /><stop
         offset="8.333%"
         stop-color="#FFDD35"
         id="stop4" /><stop
         offset="100%"
         stop-color="#FFA800"
         id="stop5" /></linearGradient></defs><g
     id="g6"><path
       style="display:inline;fill:#d6e5cf"
       d="m 113.99944,66.851322 c 0.0495,-1.202213 0.29406,-1.446751 0.6235,-0.623496 0.29811,0.74497 0.26145,1.635065 -0.0815,1.977987 -0.34292,0.342923 -0.58683,-0.266598 -0.54202,-1.354491 z M 88.634131,56.101392 c -0.350793,-0.567596 -0.146002,-1.031993 0.455092,-1.031993 0.601094,0 1.092898,0.464397 1.092898,1.031993 0,0.567596 -0.204791,1.031993 -0.455091,1.031993 -0.2503,0 -0.742105,-0.464397 -1.092899,-1.031993 z M 125.78589,37.525513 c 1.02733,-1.135193 2.10008,-2.063987 2.38388,-2.063987 0.2838,0 -0.32455,0.928794 -1.35189,2.063987 -1.02733,1.135192 -2.10008,2.063986 -2.38388,2.063986 -0.28379,0 0.32455,-0.928794 1.35189,-2.063986 z m 62.43559,-0.32292 c 0,-0.177606 1.50929,-1.686896 3.35398,-3.353978 l 3.35398,-3.031058 -3.03106,3.353978 c -2.82537,3.126377 -3.6769,3.828335 -3.6769,3.031058 z"
       id="path21" /><path
       style="display:inline;fill:#cfd2cc"
       d="m 130.51133,137.02687 c 0.0495,-1.20222 0.29406,-1.44676 0.6235,-0.6235 0.29811,0.74497 0.26145,1.63506 -0.0815,1.97799 -0.34293,0.34292 -0.58684,-0.2666 -0.54203,-1.35449 z"
       id="path20" /><path
       style="display:inline;fill:#c7dbbd"
       d="m 28.130888,80.095236 c -1.283666,-1.636799 -1.247164,-1.673301 0.389634,-0.389635 0.993294,0.778995 1.805989,1.59169 1.805989,1.805989 0,0.849365 -0.847458,0.302687 -2.195623,-1.416354 z m 3.55311,-9.286767 c 10.679554,-0.167865 27.862242,-0.167603 38.183752,5.82e-4 10.32151,0.168186 1.583693,0.305531 -19.41737,0.30521 -21.001064,-3.2e-4 -29.445935,-0.137926 -18.766382,-0.305792 z M 115.57226,54.209404 c -0.29233,-0.472997 0.12423,-0.859994 0.92569,-0.859994 0.80146,0 1.21802,0.386997 0.92569,0.859994 -0.29233,0.472997 -0.70889,0.859995 -0.92569,0.859995 -0.2168,0 -0.63336,-0.386998 -0.92569,-0.859995 z"
       id="path19" /><path
       style="display:inline;fill:#c3bbc5"
       d="m 105.74349,137.02687 c 0.0495,-1.20222 0.29406,-1.44676 0.6235,-0.6235 0.29811,0.74497 0.26145,1.63506 -0.0815,1.97799 -0.34293,0.34292 -0.58684,-0.2666 -0.54203,-1.35449 z m -1.37146,-11.4334 c 0.70949,-0.28629 1.87049,-0.28629 2.57998,0 0.7095,0.28628 0.129,0.52052 -1.28999,0.52052 -1.41899,0 -1.99949,-0.23424 -1.28999,-0.52052 z m 25.79983,0 c 0.7095,-0.28629 1.87049,-0.28629 2.57998,0 0.7095,0.28628 0.129,0.52052 -1.28999,0.52052 -1.41899,0 -1.99948,-0.23424 -1.28999,-0.52052 z M 95.342088,106.27943 c 0,-0.2143 0.812694,-1.027 1.805988,-1.80599 1.636799,-1.28367 1.673301,-1.24716 0.389635,0.38963 -1.348165,1.71905 -2.195623,2.26572 -2.195623,1.41636 z m 22.510352,-4.44331 c 0.74497,-0.29811 1.63507,-0.26145 1.97799,0.0815 0.34292,0.34293 -0.2666,0.58684 -1.35449,0.54203 -1.20222,-0.0495 -1.44675,-0.29406 -0.6235,-0.6235 z M 83.858525,98.671115 c -1.283666,-1.636799 -1.247164,-1.673301 0.389635,-0.389634 0.993293,0.778994 1.805988,1.591689 1.805988,1.805989 0,0.84936 -0.847458,0.30269 -2.195623,-1.416355 z"
       id="path18" /><path
       style="display:inline;fill:#b5d0a9"
       d="m 116.82045,76.036289 c 0.74497,-0.298113 1.63506,-0.26145 1.97799,0.08147 0.34292,0.342923 -0.2666,0.586833 -1.3545,0.542023 -1.20221,-0.04952 -1.44675,-0.294057 -0.62349,-0.623496 z"
       id="path17" /><path
       style="display:inline;fill:#a6c697"
       d="m 83.796663,33.724564 c 0.74497,-0.298113 1.635064,-0.26145 1.977987,0.08147 0.342923,0.342923 -0.266598,0.586833 -1.354491,0.542023 -1.202214,-0.04952 -1.446751,-0.294057 -0.623496,-0.623496 z"
       id="path16" /><path
       style="display:inline;fill:#9fa899"
       d="m 117.85244,124.53997 c 0.74497,-0.29811 1.63507,-0.26145 1.97799,0.0815 0.34292,0.34292 -0.2666,0.58683 -1.35449,0.54202 -1.20222,-0.0495 -1.44675,-0.29406 -0.6235,-0.6235 z"
       id="path15" /><path
       style="display:inline;fill:#88b374"
       d="m 94.587734,68.802143 c 1.004096,-0.261655 2.397286,-0.244447 3.095979,0.03824 0.698693,0.282687 -0.12284,0.496769 -1.825629,0.475737 -1.702789,-0.02103 -2.274446,-0.252321 -1.27035,-0.513977 z M 140.49179,48.19397 c 0.7095,-0.286288 1.87049,-0.286288 2.57999,0 0.70949,0.286287 0.129,0.520523 -1.28999,0.520523 -1.419,0 -1.99949,-0.234236 -1.29,-0.520523 z M 68.378626,42.943478 c -1.283666,-1.636799 -1.247164,-1.673301 0.389635,-0.389635 0.993293,0.778995 1.805988,1.591689 1.805988,1.805988 0,0.849366 -0.847458,0.302687 -2.195623,-1.416353 z M 97.922071,36.49352 c 0.350794,-0.567597 0.842598,-1.031994 1.092898,-1.031994 0.250301,0 0.455092,0.464397 0.455092,1.031994 0,0.567596 -0.491804,1.031993 -1.092899,1.031993 -0.601094,0 -0.805885,-0.464397 -0.455091,-1.031993 z"
       id="path14" /><path
       style="display:inline;fill:#867589"
       d="m 142.97673,113.89302 c 0,-1.41899 0.23423,-1.99949 0.52052,-1.29 0.28629,0.7095 0.28629,1.87049 0,2.57999 -0.28629,0.70949 -0.52052,0.129 -0.52052,-1.28999 z M 134.4262,98.671115 c -1.28367,-1.636799 -1.24717,-1.673301 0.38963,-0.389634 0.99329,0.778994 1.80599,1.591689 1.80599,1.805989 0,0.84936 -0.84746,0.30269 -2.19562,-1.416355 z"
       id="path13" /><path
       style="display:inline;fill:#6fa357"
       d="m 116.06343,42.083483 c 0.0495,-1.202213 0.29405,-1.446751 0.62349,-0.623496 0.29812,0.74497 0.26145,1.635065 -0.0815,1.977987 -0.34292,0.342923 -0.58683,-0.266598 -0.54202,-1.354491 z"
       id="path12" /><path
       style="display:inline;fill:#7d6b81"
       d="m 125.26989,99.055476 c 0,-0.214299 0.8127,-1.026994 1.80599,-1.805989 1.6368,-1.283666 1.6733,-1.247164 0.38964,0.389635 -1.34817,1.719041 -2.19563,2.265719 -2.19563,1.416354 z"
       id="path11" /><path
       style="display:inline;fill:#639b48"
       d="m 148.75977,71.883396 c 1.28371,-0.246846 3.1413,-0.237474 4.12798,0.02083 0.98667,0.258301 -0.0636,0.460266 -2.33402,0.448811 -2.27039,-0.01145 -3.07767,-0.222791 -1.79396,-0.469637 z m 38.42972,-32.683531 c 0,-0.214299 0.81269,-1.026994 1.80599,-1.805988 1.6368,-1.283666 1.6733,-1.247165 0.38963,0.389634 -1.34816,1.719041 -2.19562,2.26572 -2.19562,1.416354 z m 6.19196,-6.19196 c 0,-0.214299 0.81269,-1.026993 1.80599,-1.805988 1.6368,-1.283666 1.6733,-1.247164 0.38963,0.389634 -1.34816,1.719041 -2.19562,2.26572 -2.19562,1.416354 z M 139.5243,31.660577 c 0.74497,-0.298112 1.63506,-0.261449 1.97799,0.08147 0.34292,0.342922 -0.2666,0.586833 -1.35449,0.542022 -1.20222,-0.04952 -1.44675,-0.294056 -0.6235,-0.623496 z"
       id="path10" /><path
       style="display:inline;fill:#68526c"
       d="m 119.15941,113.29102 c 0.0495,-1.20221 0.29405,-1.44675 0.62349,-0.6235 0.29811,0.74497 0.26145,1.63507 -0.0815,1.97799 -0.34292,0.34292 -0.58683,-0.2666 -0.54202,-1.35449 z m 5.97885,-32.163791 c -1.28367,-1.636799 -1.24717,-1.6733 0.38963,-0.389634 0.99329,0.778994 1.80599,1.591689 1.80599,1.805988 0,0.849366 -0.84746,0.302687 -2.19562,-1.416354 z"
       id="path9" /><path
       style="display:inline;fill:#418620"
       d="M 70.574249,164.6892 C 44.596087,108.54605 32.908217,84.365657 30.396907,81.568492 26.194915,76.8882 20.269492,73.645278 15.919717,73.645278 c -1.725401,0 -3.137092,-0.464397 -3.137092,-1.031993 0,-0.669147 13.243914,-1.031994 37.667755,-1.031994 24.423841,0 37.667755,0.362847 37.667755,1.031994 0,0.567596 -1.191523,1.031993 -2.647828,1.031993 -1.456306,0 -3.541285,0.478164 -4.633288,1.062586 -2.394886,1.281704 -5.102804,6.239888 -5.102804,9.343208 0,2.293354 41.369175,104.104048 42.311725,104.130348 0.2838,0.008 12.78815,-28.60518 27.78745,-63.58466 31.99702,-74.619441 35.18296,-80.46325 51.58871,-94.626854 11.57623,-9.994123 25.65981,-16.319496 39.54283,-17.759915 6.29201,-0.65282 15.05655,0.04327 13.98882,1.11101 -0.23663,0.236629 -3.94921,1.103525 -8.25017,1.926435 -21.06153,4.029735 -38.14402,19.19729 -51.82329,46.013922 -15.95945,31.286665 -78.91835,171.038882 -81.70914,181.372822 -0.1916,0.70949 -0.71124,1.27672 -1.15476,1.2605 C 107.57288,243.87846 90.723918,208.236 70.574249,164.6892 Z M 114.91714,67.786987 c -0.0209,-5.144994 -0.53925,-8.741215 -1.42894,-9.914045 -1.28734,-1.697023 -1.55312,-1.536199 -3.41093,2.063987 -2.8471,5.517288 -7.71542,8.548382 -13.729772,8.548382 -5.143979,0 -12.357336,-2.417709 -12.357336,-4.141822 0,-0.559979 1.781594,-2.799739 3.959099,-4.977244 l 3.9591,-3.959099 -4.549648,-1.216845 C 82.108373,52.786049 73.392628,47.404138 69.305208,43.04239 l -2.817031,-3.006097 3.333028,-1.680231 c 8.454669,-4.262131 16.852139,-5.072942 24.52012,-2.36752 2.430287,0.857455 4.570518,1.407193 4.75607,1.221641 0.185553,-0.185553 -0.119087,-1.928934 -0.676976,-3.874181 -0.55789,-1.945247 -1.014345,-4.81697 -1.014345,-6.381607 0,-2.307491 0.463485,-2.844795 2.453952,-2.844795 5.555814,0 12.046954,4.336154 14.960974,9.99409 1.50992,2.931705 1.48702,11.145509 -0.0429,15.376354 -1.01428,2.804933 -0.93257,3.600391 0.51896,5.051916 1.60905,1.609056 1.76782,1.598502 2.40493,-0.159878 5.50371,-15.18982 12.63269,-22.006536 23.01463,-22.006536 4.66128,0 4.61334,-0.05764 2.96347,3.563419 -0.79693,1.749068 -2.02259,2.628541 -3.66322,2.628541 -3.4956,0 -7.85475,2.481775 -11.06927,6.30201 -3.06167,3.638584 -8.20637,13.249196 -7.48087,13.974699 1.08455,1.084554 5.50678,-0.958549 6.42076,-2.966439 2.04119,-4.484224 6.30891,-6.47434 13.88394,-6.47434 3.88426,0 7.44896,0.386677 7.92156,0.859283 0.47261,0.472606 -0.74965,2.296871 -2.71613,4.053922 -2.4298,2.171021 -3.12675,3.344197 -2.17514,3.6614 2.81177,0.937256 9.22081,7.589861 10.30317,10.694721 l 1.11173,3.189122 -7.73343,-0.496302 c -7.62723,-0.489486 -7.73343,-0.462047 -7.73343,1.998234 0,2.111161 -0.35685,2.384454 -2.32198,1.778257 -6.6608,-2.054703 -10.24595,-5.48879 -11.67516,-11.183241 -0.78119,-3.112507 -0.5991,-3.045846 -4.03893,-1.478556 -2.71873,1.238741 -3.38661,2.808345 -3.8732,9.102564 -0.19121,2.473334 -0.845,3.710826 -2.08457,3.945645 -1.59308,0.301786 -1.80986,-0.6097 -1.83881,-7.731498 z"
       id="path8" /><path
       style="display:inline;fill:#462b4b"
       d="m 112.64095,147.36532 c -10.57155,-5.73606 -5.91148,-22.12038 6.29154,-22.12038 4.72349,0 9.89396,4.07193 11.05761,8.70827 2.51248,10.01053 -8.26412,18.34159 -17.34915,13.41211 z m -11.73836,-23.07899 c -6.923843,-2.96532 -8.854662,-12.91335 -3.598466,-18.54012 2.869466,-3.07177 4.847276,-3.68729 10.350166,-3.22109 8.69989,0.73705 12.42463,12.89998 5.93716,19.38745 -2.6985,2.6985 -9.12394,3.90053 -12.68886,2.37376 z m 26.43129,0.28448 c -0.85139,-0.33845 -2.82508,-1.8053 -4.38597,-3.25967 -4.06471,-3.78733 -4.05548,-11.18292 0.0197,-15.74379 2.41786,-2.70605 3.59442,-3.19826 7.64501,-3.19826 2.68961,0 5.91374,0.73803 7.35792,1.6843 5.50173,3.60487 6.25143,13.02854 1.42078,17.85918 -2.46367,2.46368 -8.94971,3.89362 -12.0574,2.65824 z M 85.184272,98.416465 C 81.138386,94.37058 80.31417,90.411499 82.544209,85.735059 c 2.346996,-4.921702 7.099854,-7.412166 12.709601,-6.659741 4.634121,0.621566 7.25517,2.865208 9.40205,8.048249 1.09042,2.632503 1.0068,3.727322 -0.54803,7.175322 -2.34736,5.205516 -5.469704,7.210211 -11.230032,7.210211 -3.735007,0 -5.182928,-0.58204 -7.693526,-3.092635 z m 27.570438,1.412837 c -3.23902,-2.079242 -6.0607,-6.560163 -6.0607,-9.62461 0,-3.071668 2.63576,-7.864075 5.3837,-9.788811 6.79965,-4.762662 17.32016,1.081758 17.32016,9.621809 0,8.470453 -9.75808,14.21139 -16.64316,9.791612 z m 22.5934,-1.331532 c -2.98184,-2.664271 -3.37026,-3.625525 -3.37026,-8.3406 0,-4.715075 0.38842,-5.676328 3.37026,-8.340599 8.14863,-7.280801 20.7708,-0.864051 19.45151,9.888589 -1.13748,9.27087 -12.31093,13.17272 -19.45151,6.79261 z"
       id="path7" /></g></svg>
